<mxfile host="app.diagrams.net" modified="2023-12-08T13:08:52.443Z" agent="Mozilla/5.0 (X11; Linux x86_64) AppleWebKit/537.36 (KHTML, like Gecko) Chrome/119.0.0.0 Safari/537.36" etag="3zT7eHcU7drG0QRBZbfI" version="22.1.7" type="device">
  <diagram name="Page-1" id="uNL1qU7X7vhUmt8mTkyu">
    <mxGraphModel dx="1195" dy="652" grid="1" gridSize="10" guides="1" tooltips="1" connect="1" arrows="1" fold="1" page="1" pageScale="1" pageWidth="850" pageHeight="1100" math="0" shadow="0">
      <root>
        <mxCell id="0" />
        <mxCell id="1" parent="0" />
        <mxCell id="2VJvKd-ET1RdY-_mCASU-34" value="" style="edgeStyle=orthogonalEdgeStyle;rounded=0;orthogonalLoop=1;jettySize=auto;html=1;entryX=0.5;entryY=0;entryDx=0;entryDy=0;entryPerimeter=0;" parent="1" source="2VJvKd-ET1RdY-_mCASU-1" target="2VJvKd-ET1RdY-_mCASU-27" edge="1">
          <mxGeometry relative="1" as="geometry">
            <mxPoint x="860" y="100" as="targetPoint" />
          </mxGeometry>
        </mxCell>
        <mxCell id="2VJvKd-ET1RdY-_mCASU-1" value="EC2 instance contents" style="points=[[0,0],[0.25,0],[0.5,0],[0.75,0],[1,0],[1,0.25],[1,0.5],[1,0.75],[1,1],[0.75,1],[0.5,1],[0.25,1],[0,1],[0,0.75],[0,0.5],[0,0.25]];outlineConnect=0;gradientColor=none;html=1;whiteSpace=wrap;fontSize=12;fontStyle=0;container=1;pointerEvents=0;collapsible=0;recursiveResize=0;shape=mxgraph.aws4.group;grIcon=mxgraph.aws4.group_ec2_instance_contents;strokeColor=#D86613;fillColor=none;verticalAlign=top;align=left;spacingLeft=30;fontColor=#D86613;dashed=0;" parent="1" vertex="1">
          <mxGeometry x="640" y="40" width="120" height="120" as="geometry" />
        </mxCell>
        <mxCell id="2VJvKd-ET1RdY-_mCASU-19" value="&lt;b&gt;Auto Scaling Group&lt;/b&gt;" style="outlineConnect=0;gradientColor=none;html=1;whiteSpace=wrap;fontSize=12;fontStyle=0;strokeColor=#FF9900;fillColor=none;verticalAlign=top;align=center;fontColor=#FF9900;dashed=0;spacingTop=3;" parent="2VJvKd-ET1RdY-_mCASU-1" vertex="1">
          <mxGeometry x="-40" y="-40" width="200" height="520" as="geometry" />
        </mxCell>
        <mxCell id="2VJvKd-ET1RdY-_mCASU-9" value="" style="image;sketch=0;aspect=fixed;html=1;points=[];align=center;fontSize=12;image=img/lib/mscae/Docker.svg;" parent="2VJvKd-ET1RdY-_mCASU-1" vertex="1">
          <mxGeometry x="35" y="50" width="50" height="41" as="geometry" />
        </mxCell>
        <mxCell id="mXLUFBbuIo_T9Kj1dEz7-10" value="" style="edgeStyle=segmentEdgeStyle;endArrow=none;html=1;curved=0;rounded=0;endSize=8;startSize=8;endFill=0;jumpStyle=gap;" edge="1" parent="2VJvKd-ET1RdY-_mCASU-1">
          <mxGeometry width="50" height="50" relative="1" as="geometry">
            <mxPoint x="120" y="91" as="sourcePoint" />
            <mxPoint x="140" y="260" as="targetPoint" />
          </mxGeometry>
        </mxCell>
        <mxCell id="2VJvKd-ET1RdY-_mCASU-31" value="" style="edgeStyle=orthogonalEdgeStyle;rounded=0;orthogonalLoop=1;jettySize=auto;html=1;entryX=0;entryY=0.5;entryDx=0;entryDy=0;entryPerimeter=0;jumpStyle=gap;" parent="1" source="2VJvKd-ET1RdY-_mCASU-2" target="2VJvKd-ET1RdY-_mCASU-27" edge="1">
          <mxGeometry relative="1" as="geometry">
            <mxPoint x="860" y="260" as="targetPoint" />
          </mxGeometry>
        </mxCell>
        <mxCell id="2VJvKd-ET1RdY-_mCASU-32" value="TCP:5432" style="edgeLabel;html=1;align=center;verticalAlign=middle;resizable=0;points=[];" parent="2VJvKd-ET1RdY-_mCASU-31" vertex="1" connectable="0">
          <mxGeometry x="0.3" y="1" relative="1" as="geometry">
            <mxPoint x="16" y="-9" as="offset" />
          </mxGeometry>
        </mxCell>
        <mxCell id="2VJvKd-ET1RdY-_mCASU-2" value="EC2 instance contents" style="points=[[0,0],[0.25,0],[0.5,0],[0.75,0],[1,0],[1,0.25],[1,0.5],[1,0.75],[1,1],[0.75,1],[0.5,1],[0.25,1],[0,1],[0,0.75],[0,0.5],[0,0.25]];outlineConnect=0;gradientColor=none;html=1;whiteSpace=wrap;fontSize=12;fontStyle=0;container=1;pointerEvents=0;collapsible=0;recursiveResize=0;shape=mxgraph.aws4.group;grIcon=mxgraph.aws4.group_ec2_instance_contents;strokeColor=#D86613;fillColor=none;verticalAlign=top;align=left;spacingLeft=30;fontColor=#D86613;dashed=0;" parent="1" vertex="1">
          <mxGeometry x="640" y="200" width="120" height="120" as="geometry" />
        </mxCell>
        <mxCell id="2VJvKd-ET1RdY-_mCASU-10" value="" style="image;sketch=0;aspect=fixed;html=1;points=[];align=center;fontSize=12;image=img/lib/mscae/Docker.svg;" parent="2VJvKd-ET1RdY-_mCASU-2" vertex="1">
          <mxGeometry x="35" y="50" width="50" height="41" as="geometry" />
        </mxCell>
        <mxCell id="2VJvKd-ET1RdY-_mCASU-36" value="" style="edgeStyle=orthogonalEdgeStyle;rounded=0;orthogonalLoop=1;jettySize=auto;html=1;entryX=0.5;entryY=1;entryDx=0;entryDy=0;entryPerimeter=0;" parent="1" source="2VJvKd-ET1RdY-_mCASU-3" target="2VJvKd-ET1RdY-_mCASU-27" edge="1">
          <mxGeometry relative="1" as="geometry">
            <mxPoint x="890" y="420" as="targetPoint" />
          </mxGeometry>
        </mxCell>
        <mxCell id="2VJvKd-ET1RdY-_mCASU-3" value="EC2 instance contents" style="points=[[0,0],[0.25,0],[0.5,0],[0.75,0],[1,0],[1,0.25],[1,0.5],[1,0.75],[1,1],[0.75,1],[0.5,1],[0.25,1],[0,1],[0,0.75],[0,0.5],[0,0.25]];outlineConnect=0;gradientColor=none;html=1;whiteSpace=wrap;fontSize=12;fontStyle=0;container=1;pointerEvents=0;collapsible=0;recursiveResize=0;shape=mxgraph.aws4.group;grIcon=mxgraph.aws4.group_ec2_instance_contents;strokeColor=#D86613;fillColor=none;verticalAlign=top;align=left;spacingLeft=30;fontColor=#D86613;dashed=0;" parent="1" vertex="1">
          <mxGeometry x="640" y="360" width="120" height="120" as="geometry" />
        </mxCell>
        <mxCell id="2VJvKd-ET1RdY-_mCASU-11" value="" style="image;sketch=0;aspect=fixed;html=1;points=[];align=center;fontSize=12;image=img/lib/mscae/Docker.svg;" parent="2VJvKd-ET1RdY-_mCASU-3" vertex="1">
          <mxGeometry x="35" y="50" width="50" height="41" as="geometry" />
        </mxCell>
        <mxCell id="2VJvKd-ET1RdY-_mCASU-4" value="" style="outlineConnect=0;dashed=0;verticalLabelPosition=bottom;verticalAlign=top;align=center;html=1;shape=mxgraph.aws3.application_load_balancer;fillColor=#F58534;gradientColor=none;" parent="1" vertex="1">
          <mxGeometry x="391" y="224" width="69" height="72" as="geometry" />
        </mxCell>
        <mxCell id="2VJvKd-ET1RdY-_mCASU-5" value="" style="endArrow=classic;html=1;rounded=0;exitX=1;exitY=0.5;exitDx=0;exitDy=0;exitPerimeter=0;entryX=0;entryY=0.5;entryDx=0;entryDy=0;" parent="1" source="2VJvKd-ET1RdY-_mCASU-4" target="2VJvKd-ET1RdY-_mCASU-2" edge="1">
          <mxGeometry width="50" height="50" relative="1" as="geometry">
            <mxPoint x="400" y="430" as="sourcePoint" />
            <mxPoint x="450" y="380" as="targetPoint" />
          </mxGeometry>
        </mxCell>
        <mxCell id="2VJvKd-ET1RdY-_mCASU-13" value="443:8080&lt;br&gt;443:8081" style="edgeLabel;html=1;align=center;verticalAlign=middle;resizable=0;points=[];" parent="2VJvKd-ET1RdY-_mCASU-5" vertex="1" connectable="0">
          <mxGeometry x="0.1556" y="1" relative="1" as="geometry">
            <mxPoint as="offset" />
          </mxGeometry>
        </mxCell>
        <mxCell id="2VJvKd-ET1RdY-_mCASU-7" value="" style="endArrow=classic;html=1;rounded=0;exitX=1;exitY=0.5;exitDx=0;exitDy=0;exitPerimeter=0;entryX=0;entryY=0.5;entryDx=0;entryDy=0;" parent="1" source="2VJvKd-ET1RdY-_mCASU-4" target="2VJvKd-ET1RdY-_mCASU-3" edge="1">
          <mxGeometry width="50" height="50" relative="1" as="geometry">
            <mxPoint x="470" y="270" as="sourcePoint" />
            <mxPoint x="650" y="270" as="targetPoint" />
          </mxGeometry>
        </mxCell>
        <mxCell id="2VJvKd-ET1RdY-_mCASU-14" value="443:8080&lt;br&gt;443:8081" style="edgeLabel;html=1;align=center;verticalAlign=middle;resizable=0;points=[];" parent="2VJvKd-ET1RdY-_mCASU-7" vertex="1" connectable="0">
          <mxGeometry x="0.2228" y="-2" relative="1" as="geometry">
            <mxPoint as="offset" />
          </mxGeometry>
        </mxCell>
        <mxCell id="2VJvKd-ET1RdY-_mCASU-8" value="" style="endArrow=classic;html=1;rounded=0;exitX=1;exitY=0.5;exitDx=0;exitDy=0;exitPerimeter=0;entryX=0;entryY=0.5;entryDx=0;entryDy=0;" parent="1" source="2VJvKd-ET1RdY-_mCASU-4" target="2VJvKd-ET1RdY-_mCASU-1" edge="1">
          <mxGeometry width="50" height="50" relative="1" as="geometry">
            <mxPoint x="480" y="280" as="sourcePoint" />
            <mxPoint x="660" y="280" as="targetPoint" />
          </mxGeometry>
        </mxCell>
        <mxCell id="2VJvKd-ET1RdY-_mCASU-12" value="&lt;font style=&quot;font-size: 11px;&quot;&gt;Host Header=cloud.mdesoeuv.com : 443:8080&lt;br&gt;Host Header=phpmyadmin.mdesoeuv.com : 443:8081&lt;/font&gt;" style="edgeLabel;html=1;align=center;verticalAlign=middle;resizable=0;points=[];" parent="2VJvKd-ET1RdY-_mCASU-8" vertex="1" connectable="0">
          <mxGeometry x="-0.011" y="-1" relative="1" as="geometry">
            <mxPoint x="-103" y="288" as="offset" />
          </mxGeometry>
        </mxCell>
        <mxCell id="mXLUFBbuIo_T9Kj1dEz7-12" value="443:8080&lt;br&gt;443:8081" style="edgeLabel;html=1;align=center;verticalAlign=middle;resizable=0;points=[];" vertex="1" connectable="0" parent="2VJvKd-ET1RdY-_mCASU-8">
          <mxGeometry x="0.0697" y="2" relative="1" as="geometry">
            <mxPoint as="offset" />
          </mxGeometry>
        </mxCell>
        <mxCell id="2VJvKd-ET1RdY-_mCASU-15" value="Application Load Balancer" style="text;html=1;strokeColor=none;fillColor=none;align=center;verticalAlign=middle;whiteSpace=wrap;rounded=0;" parent="1" vertex="1">
          <mxGeometry x="360" y="296" width="130" height="44" as="geometry" />
        </mxCell>
        <mxCell id="2VJvKd-ET1RdY-_mCASU-20" value="" style="outlineConnect=0;dashed=0;verticalLabelPosition=bottom;verticalAlign=top;align=center;html=1;shape=mxgraph.aws3.cloudfront;fillColor=#F58536;gradientColor=none;" parent="1" vertex="1">
          <mxGeometry x="160" y="213.5" width="76.5" height="93" as="geometry" />
        </mxCell>
        <mxCell id="2VJvKd-ET1RdY-_mCASU-21" value="CloudFront Distribution" style="text;html=1;strokeColor=none;fillColor=none;align=center;verticalAlign=middle;whiteSpace=wrap;rounded=0;" parent="1" vertex="1">
          <mxGeometry x="133.25" y="306.5" width="130" height="44" as="geometry" />
        </mxCell>
        <mxCell id="2VJvKd-ET1RdY-_mCASU-22" value="" style="endArrow=classic;html=1;rounded=0;entryX=0;entryY=0.5;entryDx=0;entryDy=0;entryPerimeter=0;" parent="1" target="2VJvKd-ET1RdY-_mCASU-4" edge="1">
          <mxGeometry width="50" height="50" relative="1" as="geometry">
            <mxPoint x="240" y="260" as="sourcePoint" />
            <mxPoint x="450" y="230" as="targetPoint" />
          </mxGeometry>
        </mxCell>
        <mxCell id="2VJvKd-ET1RdY-_mCASU-23" value="HTTPS:443&lt;br&gt;Forward Host Headers" style="edgeLabel;html=1;align=center;verticalAlign=middle;resizable=0;points=[];" parent="2VJvKd-ET1RdY-_mCASU-22" vertex="1" connectable="0">
          <mxGeometry x="0.0728" y="1" relative="1" as="geometry">
            <mxPoint x="-1" y="23" as="offset" />
          </mxGeometry>
        </mxCell>
        <mxCell id="2VJvKd-ET1RdY-_mCASU-24" value="" style="endArrow=classic;html=1;rounded=0;entryX=0;entryY=0.5;entryDx=0;entryDy=0;entryPerimeter=0;" parent="1" target="2VJvKd-ET1RdY-_mCASU-20" edge="1">
          <mxGeometry width="50" height="50" relative="1" as="geometry">
            <mxPoint x="40" y="260" as="sourcePoint" />
            <mxPoint x="450" y="230" as="targetPoint" />
          </mxGeometry>
        </mxCell>
        <mxCell id="2VJvKd-ET1RdY-_mCASU-25" value="HTTPS:443" style="edgeLabel;html=1;align=center;verticalAlign=middle;resizable=0;points=[];" parent="2VJvKd-ET1RdY-_mCASU-24" vertex="1" connectable="0">
          <mxGeometry x="0.3333" y="-5" relative="1" as="geometry">
            <mxPoint x="-30" y="6" as="offset" />
          </mxGeometry>
        </mxCell>
        <mxCell id="2VJvKd-ET1RdY-_mCASU-26" value="&lt;b&gt;Cache at the Edge&lt;/b&gt;" style="outlineConnect=0;gradientColor=none;html=1;whiteSpace=wrap;fontSize=12;fontStyle=0;strokeColor=#FF9900;fillColor=none;verticalAlign=top;align=center;fontColor=#FF9900;dashed=0;spacingTop=3;" parent="1" vertex="1">
          <mxGeometry x="120" y="160" width="160" height="200" as="geometry" />
        </mxCell>
        <mxCell id="2VJvKd-ET1RdY-_mCASU-27" value="" style="sketch=0;points=[[0,0,0],[0.25,0,0],[0.5,0,0],[0.75,0,0],[1,0,0],[0,1,0],[0.25,1,0],[0.5,1,0],[0.75,1,0],[1,1,0],[0,0.25,0],[0,0.5,0],[0,0.75,0],[1,0.25,0],[1,0.5,0],[1,0.75,0]];outlineConnect=0;fontColor=#232F3E;fillColor=#C925D1;strokeColor=#ffffff;dashed=0;verticalLabelPosition=bottom;verticalAlign=top;align=center;html=1;fontSize=12;fontStyle=0;aspect=fixed;shape=mxgraph.aws4.resourceIcon;resIcon=mxgraph.aws4.rds;" parent="1" vertex="1">
          <mxGeometry x="920" y="220" width="80" height="80" as="geometry" />
        </mxCell>
        <mxCell id="2VJvKd-ET1RdY-_mCASU-28" value="RDS PostgreSQL Database" style="text;html=1;strokeColor=none;fillColor=none;align=center;verticalAlign=middle;whiteSpace=wrap;rounded=0;" parent="1" vertex="1">
          <mxGeometry x="1000" y="238" width="130" height="44" as="geometry" />
        </mxCell>
        <mxCell id="2VJvKd-ET1RdY-_mCASU-37" value="TCP:5432" style="edgeLabel;html=1;align=center;verticalAlign=middle;resizable=0;points=[];" parent="1" vertex="1" connectable="0">
          <mxGeometry x="880" y="250" as="geometry">
            <mxPoint x="7" y="-167" as="offset" />
          </mxGeometry>
        </mxCell>
        <mxCell id="2VJvKd-ET1RdY-_mCASU-38" value="TCP:5432" style="edgeLabel;html=1;align=center;verticalAlign=middle;resizable=0;points=[];" parent="1" vertex="1" connectable="0">
          <mxGeometry x="880" y="410" as="geometry" />
        </mxCell>
        <mxCell id="mXLUFBbuIo_T9Kj1dEz7-3" value="Amazon Elastic File System" style="sketch=0;outlineConnect=0;fontColor=#232F3E;gradientColor=none;strokeColor=#ffffff;fillColor=#232F3E;dashed=0;verticalLabelPosition=middle;verticalAlign=bottom;align=center;html=1;whiteSpace=wrap;fontSize=10;fontStyle=1;spacing=3;shape=mxgraph.aws4.productIcon;prIcon=mxgraph.aws4.elastic_file_system;" vertex="1" parent="1">
          <mxGeometry x="670" y="560" width="80" height="110" as="geometry" />
        </mxCell>
        <mxCell id="mXLUFBbuIo_T9Kj1dEz7-6" value="" style="edgeStyle=segmentEdgeStyle;endArrow=none;html=1;curved=0;rounded=0;endSize=8;startSize=8;entryX=1;entryY=0.75;entryDx=0;entryDy=0;startArrow=classic;startFill=1;endFill=0;" edge="1" parent="1" source="mXLUFBbuIo_T9Kj1dEz7-3" target="2VJvKd-ET1RdY-_mCASU-3">
          <mxGeometry width="50" height="50" relative="1" as="geometry">
            <mxPoint x="700" y="310" as="sourcePoint" />
            <mxPoint x="750" y="260" as="targetPoint" />
            <Array as="points">
              <mxPoint x="780" y="600" />
              <mxPoint x="780" y="450" />
            </Array>
          </mxGeometry>
        </mxCell>
        <mxCell id="mXLUFBbuIo_T9Kj1dEz7-7" value="TCP:2049" style="edgeLabel;html=1;align=center;verticalAlign=middle;resizable=0;points=[];" vertex="1" connectable="0" parent="mXLUFBbuIo_T9Kj1dEz7-6">
          <mxGeometry x="-0.1" relative="1" as="geometry">
            <mxPoint x="30" as="offset" />
          </mxGeometry>
        </mxCell>
        <mxCell id="mXLUFBbuIo_T9Kj1dEz7-9" value="" style="edgeStyle=segmentEdgeStyle;endArrow=none;html=1;curved=0;rounded=0;endSize=8;startSize=8;exitX=1;exitY=0.75;exitDx=0;exitDy=0;endFill=0;jumpStyle=gap;" edge="1" parent="1" source="2VJvKd-ET1RdY-_mCASU-2">
          <mxGeometry width="50" height="50" relative="1" as="geometry">
            <mxPoint x="700" y="310" as="sourcePoint" />
            <mxPoint x="780" y="450" as="targetPoint" />
          </mxGeometry>
        </mxCell>
        <mxCell id="mXLUFBbuIo_T9Kj1dEz7-14" value="" style="sketch=0;outlineConnect=0;fontColor=#232F3E;gradientColor=none;fillColor=#E7157B;strokeColor=none;dashed=0;verticalLabelPosition=bottom;verticalAlign=top;align=center;html=1;fontSize=12;fontStyle=0;aspect=fixed;pointerEvents=1;shape=mxgraph.aws4.rule_2;" vertex="1" parent="1">
          <mxGeometry x="256.75" y="446.62" width="48" height="46.77" as="geometry" />
        </mxCell>
        <mxCell id="mXLUFBbuIo_T9Kj1dEz7-15" value="" style="endArrow=none;dashed=1;html=1;dashPattern=1 3;strokeWidth=2;rounded=0;exitX=0.5;exitY=1;exitDx=0;exitDy=0;" edge="1" parent="1" source="2VJvKd-ET1RdY-_mCASU-15">
          <mxGeometry width="50" height="50" relative="1" as="geometry">
            <mxPoint x="411.5" y="390" as="sourcePoint" />
            <mxPoint x="425" y="440" as="targetPoint" />
          </mxGeometry>
        </mxCell>
        <mxCell id="mXLUFBbuIo_T9Kj1dEz7-16" value="" style="rounded=0;whiteSpace=wrap;html=1;fillColor=none;strokeColor=#FF66B3;" vertex="1" parent="1">
          <mxGeometry x="250" y="440" width="336.75" height="60" as="geometry" />
        </mxCell>
      </root>
    </mxGraphModel>
  </diagram>
</mxfile>
